<?xml version="1.0" encoding="iso-8859-1"?>
<!-- Generator: Adobe Illustrator 19.0.0, SVG Export Plug-In . SVG Version: 6.00 Build 0)  -->
<svg version="1.1" id="Capa_1" xmlns="http://www.w3.org/2000/svg" xmlns:xlink="http://www.w3.org/1999/xlink" x="0px" y="0px"
	 viewBox="0 0 480 480" style="enable-background:new 0 0 480 480;" xml:space="preserve">
<path style="fill:#FF9275;" d="M192,0H48c-4.418,0-8,3.582-8,8v456h160V8C200,3.582,196.418,0,192,0z"/>
<path style="fill:#FBB040;" d="M306.2,126.344L200,96v368h112V134.032C311.998,130.462,309.632,127.326,306.2,126.344L306.2,126.344
	z"/>
<path style="fill:#FFE477;" d="M371.576,205.792L312,176v288h64V212.944C375.998,209.915,374.286,207.146,371.576,205.792z"/>
<ellipse style="fill:#64C37D;" cx="432" cy="384" rx="24" ry="32"/>
<path style="fill:#D1D3D4;" d="M424,392h16v80h-16V392z"/>
<path style="fill:#BCBEC0;" d="M0,464h480v16H0V464z"/>
<g>
	<path style="fill:#ABD3F3;" d="M40,40h80v16H40V40z"/>
	<path style="fill:#ABD3F3;" d="M40,88h80v16H40V88z"/>
	<path style="fill:#ABD3F3;" d="M40,136h80v16H40V136z"/>
	<path style="fill:#ABD3F3;" d="M40,184h80v16H40V184z"/>
	<path style="fill:#ABD3F3;" d="M40,232h80v16H40V232z"/>
	<path style="fill:#ABD3F3;" d="M40,280h80v16H40V280z"/>
	<path style="fill:#ABD3F3;" d="M40,328h80v16H40V328z"/>
	<path style="fill:#ABD3F3;" d="M40,376h80v16H40V376z"/>
	<path style="fill:#ABD3F3;" d="M40,424h80v16H40V424z"/>
	<path style="fill:#ABD3F3;" d="M200,136h64v16h-64V136z"/>
	<path style="fill:#ABD3F3;" d="M200,184h64v16h-64V184z"/>
	<path style="fill:#ABD3F3;" d="M200,232h64v16h-64V232z"/>
	<path style="fill:#ABD3F3;" d="M200,280h64v16h-64V280z"/>
	<path style="fill:#ABD3F3;" d="M200,328h64v16h-64V328z"/>
	<path style="fill:#ABD3F3;" d="M200,376h64v16h-64V376z"/>
	<path style="fill:#ABD3F3;" d="M200,424h64v16h-64V424z"/>
	<path style="fill:#ABD3F3;" d="M312,232h32v16h-32V232z"/>
	<path style="fill:#ABD3F3;" d="M312,280h32v16h-32V280z"/>
	<path style="fill:#ABD3F3;" d="M312,328h32v16h-32V328z"/>
	<path style="fill:#ABD3F3;" d="M312,376h32v16h-32V376z"/>
	<path style="fill:#ABD3F3;" d="M312,424h32v16h-32V424z"/>
</g>
<g>
</g>
<g>
</g>
<g>
</g>
<g>
</g>
<g>
</g>
<g>
</g>
<g>
</g>
<g>
</g>
<g>
</g>
<g>
</g>
<g>
</g>
<g>
</g>
<g>
</g>
<g>
</g>
<g>
</g>
</svg>
