<svg height="512pt" viewBox="0 0 512 512.00001" width="512pt" xmlns="http://www.w3.org/2000/svg"><path d="m511.257812 129.660156-2.886718-38.230468-23.8125 30.050781c-10.800782 13.625-26.9375 21.441406-44.273438 21.441406-31.136718 0-56.464844-25.332031-56.464844-56.46875 0-22.105469 13.023438-42.296875 33.183594-51.441406l34.871094-15.816407-36.34375-12.066406c-14.25-4.730468-29.140625-7.128906-44.257812-7.128906-43.609376 0-84.003907 19.757812-110.828126 54.203125l-3.160156 4.0625v184.886719l204.117188 5.042968 4.453125-4.058593c29.109375-26.554688 45.808593-64.367188 45.808593-103.75 0-3.558594-.136718-7.167969-.40625-10.726563zm0 0" fill="#dce1eb"/><path d="m511.257812 129.660156-2.886718-38.230468-23.8125 30.050781c-10.800782 13.625-26.9375 21.441406-44.273438 21.441406-31.136718 0-56.464844-25.332031-56.464844-56.46875 0-22.105469 13.023438-42.296875 33.183594-51.441406l34.871094-15.816407-36.34375-12.066406c-14.25-4.730468-29.140625-7.128906-44.257812-7.128906-43.609376 0-84.003907 19.757812-110.828126 54.203125l-3.160156 4.0625v184.886719l204.117188 5.042968 4.453125-4.058593c29.109375-26.554688 45.808593-64.367188 45.808593-103.75 0-3.558594-.136718-7.167969-.40625-10.726563zm0 0" fill="#b6c4cf"/><g fill="#00d7df"><path d="m175.082031 446.996094h29.984375v65.003906h-29.984375zm0 0"/><path d="m240.332031 446.996094h29.984375v65.003906h-29.984375zm0 0"/><path d="m305.582031 446.996094h29.988281v65.003906h-29.988281zm0 0"/><path d="m208.253906 391.839844h29.984375v55.15625h-29.984375zm0 0"/><path d="m143.003906 391.839844h29.984375v55.15625h-29.984375zm0 0"/><path d="m338.757812 391.839844h29.984376v55.15625h-29.984376zm0 0"/><path d="m273.507812 391.839844h29.984376v55.15625h-29.984376zm0 0"/></g><path d="m254.9375 446.996094h15.378906v65.003906h-15.378906zm0 0" fill="#00b6be"/><path d="m305.582031 446.996094h29.988281v65.003906h-29.988281zm0 0" fill="#00b6be"/><path d="m338.757812 391.839844h29.984376v55.15625h-29.984376zm0 0" fill="#00b6be"/><path d="m273.507812 391.839844h29.984376v55.15625h-29.984376zm0 0" fill="#00b6be"/><path d="m417.292969 396.652344h-304.347657c-62.277343 0-112.945312-50.664063-112.945312-112.941406v-8.664063c0-57.195313 42.734375-104.597656 97.953125-111.953125v-33.972656c0-59.339844 48.273437-107.613282 107.613281-107.613282h1.847656c54.332032 0 99.390626 40.476563 106.605469 92.855469 51.203125 3.40625 92.65625 43.011719 98.949219 93.382813h4.324219c52.082031 0 94.453125 42.371094 94.453125 94.453125s-42.371094 94.453125-94.453125 94.453125zm0 0" fill="#00aadf"/><path d="m417.292969 207.746094h-4.324219c-6.292969-50.371094-47.75-89.976563-98.953125-93.378906-4.898437-35.585938-27.269531-65.671876-58.144531-81.3125v363.597656h161.421875c52.082031 0 94.453125-42.371094 94.453125-94.453125 0-52.078125-42.371094-94.453125-94.453125-94.453125zm0 0" fill="#007fc5"/></svg>