<svg id="Capa_1" enable-background="new 0 0 512 512" height="512" viewBox="0 0 512 512" width="512" xmlns="http://www.w3.org/2000/svg"><g><g><path d="m404.157 339.486-148.157 7h-158.156c-53.951 0-97.844-43.889-97.844-97.835 0-48.151 34.378-86.727 77.708-95.749-20.097-102.358 84.22-183.831 178.297-141.441 0 0 26.981 28.932 40.027 46.081 72.466-22.786 146.718 31.583 146.718 107.783 36.007 14.996 59.25 36.565 59.25 76.326 0 53.946-43.892 97.835-97.843 97.835z" fill="#4e6ba6"/><path d="m512 248.651c0-39.761-24.243-75.33-60.25-90.325 0-76.216-74.283-130.56-146.718-107.783-13.046-17.15-29.911-30.456-49.032-39.072v335.015h158.157c53.951 0 97.843-43.889 97.843-97.835z" fill="#28487a"/><path d="m176.575 458.459-21.9-20.504 142.045-151.714h-113.76l136.448-141.03 21.561 20.861-87.241 90.169h112.177z" fill="#f6e486"/><g fill="#f0ce46"><path d="m256 256.241v30h40.72l-40.72 43.492v43.895l109.905-117.387z"/><path d="m319.408 145.211-63.408 65.538v43.144l84.969-87.821z"/></g></g><path d="m20 452h30v60h-30z" fill="#8dc2eb"/><path d="m90 376.802h30v60h-30z" fill="#8dc2eb"/><g fill="#5e9ff6"><path d="m256 451.938h30v60h-30z"/><path d="m320.905 376.802h30v60h-30z"/><path d="m390.777 451.938h30v60h-30z"/><path d="m455.682 376.802h30v60h-30z"/></g></g></svg>